Coordinates
version=1
nRows=33
nColumns=38
inDegrees=no

Units are S.I. units (second, meters, Newtons, ...)
If the header above contains a line with 'inDegrees', this indicates whether rotational values are in degrees (yes) or radians (no).

endheader
time	pelvis_tilt	pelvis_list	pelvis_rotation	pelvis_tx	pelvis_ty	pelvis_tz	hip_flexion_r	hip_adduction_r	hip_rotation_r	knee_angle_r	ankle_angle_r	subtalar_angle_r	mtp_angle_r	hip_flexion_l	hip_adduction_l	hip_rotation_l	knee_angle_l	ankle_angle_l	subtalar_angle_l	mtp_angle_l	lumbar_extension	lumbar_bending	lumbar_rotation	arm_flex_r	arm_add_r	arm_rot_r	elbow_flex_r	pro_sup_r	wrist_flex_r	wrist_dev_r	arm_flex_l	arm_add_l	arm_rot_l	elbow_flex_l	pro_sup_l	wrist_flex_l	wrist_dev_l
15	-0.19827	1.39479	-1.31664	0.784512	0.252606	0.95494	-0.0494679	-0.0196374	-0.0653549	0.358467	-0.335989	0	0	-0.140107	-0.0739621	0.027152	0.179914	-0.376306	0	0	-0.608179	0.189174	-0.189063	-0.0768054	-0.223858	0.0462709	1.11147	1.5708	0	0	-0.213708	-0.155235	-0.278799	0.922977	1.5708	0	0
15.01	-0.195546	1.39448	-1.3167	0.785217	0.251451	0.955026	-0.05334	-0.0203277	-0.0681442	0.355041	-0.336298	0	0	-0.143015	-0.0732628	0.0291596	0.176696	-0.377245	0	0	-0.580858	0.18514	-0.142465	-0.108323	-0.223512	-0.000539314	1.10285	1.5708	0	0	-0.166584	-0.168933	-0.208003	0.87847	1.5708	0	0
15.02	-0.193617	1.39367	-1.31746	0.78577	0.250687	0.955104	-0.0560707	-0.0206152	-0.0672211	0.353982	-0.335914	0	0	-0.145278	-0.0728784	0.0287715	0.175773	-0.377324	0	0	-0.594451	0.188224	-0.162034	-0.101644	-0.224647	0.0124248	1.11453	1.5708	0	0	-0.191191	-0.16841	-0.227054	0.907618	1.5708	0	0
15.03	-0.190428	1.39318	-1.31881	0.786389	0.249755	0.955197	-0.0593716	-0.0212451	-0.067923	0.351679	-0.335484	0	0	-0.147567	-0.0723253	0.0284622	0.174614	-0.376756	0	0	-0.578182	0.185032	-0.143623	-0.111982	-0.226468	-0.00237533	1.10398	1.5708	0	0	-0.169963	-0.173749	-0.196075	0.886757	1.5708	0	0
15.04	-0.18455	1.39047	-1.32345	0.786922	0.249111	0.955386	-0.064925	-0.0217278	-0.0673999	0.348854	-0.335136	0	0	-0.15271	-0.0717385	0.0285318	0.171939	-0.37828	0	0	-0.591792	0.186777	-0.168125	-0.0984777	-0.230488	0.0221361	1.1106	1.5708	0	0	-0.197161	-0.172417	-0.220751	0.916604	1.5708	0	0
15.05	-0.179986	1.38896	-1.3263	0.787445	0.248301	0.955451	-0.0690724	-0.0225032	-0.0691165	0.346811	-0.334223	0	0	-0.156138	-0.0712685	0.0282596	0.170458	-0.378372	0	0	-0.59049	0.186121	-0.170002	-0.098287	-0.233647	0.0260451	1.11119	1.5708	0	0	-0.199206	-0.174903	-0.216158	0.920115	1.5708	0	0
15.06	-0.177432	1.38764	-1.32755	0.787941	0.247487	0.955469	-0.0724095	-0.0232029	-0.0713046	0.345844	-0.333343	0	0	-0.159284	-0.0711479	0.0274565	0.169075	-0.378465	0	0	-0.588749	0.185655	-0.171907	-0.0975077	-0.236635	0.0298696	1.11113	1.5708	0	0	-0.20171	-0.176862	-0.212694	0.924243	1.5708	0	0
15.07	-0.176673	1.3865	-1.32751	0.788414	0.246687	0.955452	-0.0750241	-0.0237878	-0.0733656	0.345606	-0.332481	0	0	-0.162245	-0.0712668	0.0264729	0.167613	-0.378669	0	0	-0.587423	0.185659	-0.174248	-0.0962573	-0.23907	0.033028	1.11058	1.5708	0	0	-0.205498	-0.178277	-0.210973	0.930035	1.5708	0	0
15.08	-0.178109	1.38631	-1.32576	0.788845	0.245908	0.955352	-0.0763218	-0.0240663	-0.0741476	0.345499	-0.333324	0	0	-0.16337	-0.0713818	0.0247179	0.167703	-0.376559	0	0	-0.588772	0.186678	-0.173336	-0.100079	-0.239956	0.0285299	1.11608	1.5708	0	0	-0.208829	-0.180459	-0.206639	0.937016	1.5708	0	0
15.09	-0.17796	1.38542	-1.32515	0.789293	0.245099	0.95533	-0.078934	-0.0244213	-0.0763028	0.344433	-0.333137	0	0	-0.165783	-0.0712326	0.0239713	0.166133	-0.376903	0	0	-0.583339	0.186204	-0.171666	-0.10027	-0.24173	0.0287443	1.10972	1.5708	0	0	-0.207464	-0.182616	-0.199666	0.936818	1.5708	0	0
15.1	-0.167948	1.36606	-1.32512	0.790278	0.24367	0.956846	-0.0634312	-0.0172515	-0.280632	0.432672	-0.306595	0	0	-0.192869	-0.0761443	0.0281407	0.152457	-0.387944	0	0	-0.602965	0.193415	-0.192432	-0.0909633	-0.24352	0.0451299	1.10882	1.5708	0	0	-0.226267	-0.183078	-0.213725	0.960978	1.5708	0	0
15.11	-0.166885	1.36504	-1.32591	0.79062	0.24293	0.956825	-0.0659378	-0.0173279	-0.280489	0.431829	-0.307293	0	0	-0.196606	-0.0758034	0.0280176	0.148318	-0.388769	0	0	-0.600548	0.192948	-0.191659	-0.0922396	-0.244265	0.0446031	1.10712	1.5708	0	0	-0.228036	-0.185089	-0.208775	0.966788	1.5708	0	0
15.12	-0.165594	1.36491	-1.32726	0.790963	0.242244	0.956735	-0.0668562	-0.0177222	-0.279111	0.432348	-0.304593	0	0	-0.198745	-0.0751964	0.026749	0.146223	-0.387268	0	0	-0.59765	0.192087	-0.192694	-0.0919441	-0.245192	0.0463011	1.10496	1.5708	0	0	-0.231157	-0.186185	-0.206728	0.973338	1.5708	0	0
15.13	-0.168702	1.38007	-1.33312	0.790664	0.242277	0.955411	-0.0898443	-0.0262304	-0.0774081	0.342473	-0.330485	0	0	-0.183487	-0.069057	0.0260146	0.146473	-0.386765	0	0	-0.576848	0.183398	-0.17758	-0.0970707	-0.246087	0.0381382	1.09919	1.5708	0	0	-0.221811	-0.189541	-0.189285	0.966328	1.5708	0	0
15.14	-0.167933	1.37943	-1.33261	0.79089	0.241564	0.955419	-0.0914567	-0.0263868	-0.0792704	0.342906	-0.329948	0	0	-0.186147	-0.0692097	0.0264904	0.143946	-0.387167	0	0	-0.575145	0.18268	-0.179759	-0.0966366	-0.246574	0.0390536	1.09798	1.5708	0	0	-0.225375	-0.190847	-0.189066	0.973012	1.5708	0	0
15.15	-0.167524	1.37911	-1.33163	0.791064	0.240867	0.955415	-0.0927821	-0.0263766	-0.0806715	0.343106	-0.329484	0	0	-0.188009	-0.0695515	0.0267591	0.142349	-0.387535	0	0	-0.572851	0.1819	-0.181989	-0.0957664	-0.247019	0.0400797	1.09675	1.5708	0	0	-0.228271	-0.191834	-0.189761	0.977645	1.5708	0	0
15.16	-0.166481	1.37868	-1.33173	0.791236	0.240256	0.955406	-0.0939889	-0.0264532	-0.0808187	0.343381	-0.329693	0	0	-0.189263	-0.0695854	0.0260063	0.142179	-0.386247	0	0	-0.570521	0.180798	-0.176321	-0.101986	-0.246851	0.0312832	1.10098	1.5708	0	0	-0.224927	-0.194803	-0.18103	0.978777	1.5708	0	0
15.17	-0.151383	1.35464	-1.33639	0.792044	0.239496	0.957168	-0.0819525	-0.019013	-0.285881	0.434494	-0.301938	0	0	-0.219334	-0.0750362	0.0282735	0.132737	-0.394026	0	0	-0.615309	0.188153	-0.251068	-0.0505994	-0.252741	0.110768	1.09694	1.5708	0	0	-0.296337	-0.174705	-0.273878	1.0509	1.5708	0	0
15.18	-0.158303	1.36337	-1.32905	0.792242	0.238241	0.956661	-0.0727668	-0.0199356	-0.285552	0.436604	-0.303702	0	0	-0.21083	-0.0745278	0.028517	0.132934	-0.39301	0	0	-0.567283	0.1833	-0.150715	-0.12825	-0.245262	-0.00451626	1.10845	1.5708	0	0	-0.19604	-0.208283	-0.130427	0.962383	1.5708	0	0
15.19	-0.161301	1.3765	-1.33468	0.791847	0.2387	0.955446	-0.0975126	-0.0273474	-0.0810565	0.346209	-0.327076	0	0	-0.194471	-0.0695025	0.0251362	0.139505	-0.3885	0	0	-0.566478	0.177644	-0.179041	-0.101267	-0.250456	0.0340511	1.10454	1.5708	0	0	-0.230801	-0.198093	-0.179959	0.995228	1.5708	0	0
15.2	-0.15998	1.37672	-1.33478	0.792082	0.237996	0.955417	-0.0984501	-0.0277773	-0.0826056	0.346057	-0.325806	0	0	-0.194698	-0.06921	0.0241909	0.139538	-0.389192	0	0	-0.55178	0.175244	-0.162308	-0.111056	-0.250642	0.0186357	1.09885	1.5708	0	0	-0.210838	-0.202904	-0.155393	0.978397	1.5708	0	0
15.21	-0.155748	1.37387	-1.33745	0.792305	0.237602	0.955522	-0.102946	-0.0278683	-0.0843877	0.344784	-0.32692	0	0	-0.197617	-0.0689815	0.0231941	0.14033	-0.388523	0	0	-0.562748	0.175713	-0.201483	-0.0794406	-0.255728	0.0656601	1.09063	1.5708	0	0	-0.248622	-0.193006	-0.207504	1.01561	1.5708	0	0
15.22	-0.154571	1.37291	-1.33756	0.792519	0.237029	0.955533	-0.105457	-0.0278326	-0.0853074	0.343665	-0.327009	0	0	-0.199544	-0.069025	0.0231766	0.139705	-0.388349	0	0	-0.560971	0.175236	-0.204663	-0.0765194	-0.257334	0.070211	1.09074	1.5708	0	0	-0.251727	-0.192723	-0.211774	1.02343	1.5708	0	0
15.23	-0.154125	1.37197	-1.3373	0.792711	0.236454	0.95556	-0.108031	-0.0276418	-0.0858029	0.342147	-0.327069	0	0	-0.202064	-0.0694241	0.023678	0.138335	-0.388421	0	0	-0.559329	0.174692	-0.207768	-0.0735278	-0.259102	0.0743883	1.09247	1.5708	0	0	-0.255178	-0.192476	-0.216061	1.03194	1.5708	0	0
15.24	-0.154278	1.37091	-1.33671	0.792885	0.235903	0.95559	-0.110772	-0.0272774	-0.0860252	0.340376	-0.327068	0	0	-0.204502	-0.0697099	0.023725	0.137124	-0.388513	0	0	-0.558087	0.174065	-0.210612	-0.07061	-0.261375	0.0788058	1.09593	1.5708	0	0	-0.258926	-0.192419	-0.220139	1.04138	1.5708	0	0
15.25	-0.155699	1.37046	-1.33521	0.793006	0.235346	0.955588	-0.112508	-0.0268677	-0.0859769	0.339125	-0.327125	0	0	-0.205961	-0.0697634	0.0236214	0.13627	-0.388723	0	0	-0.558699	0.173812	-0.214132	-0.0677992	-0.263552	0.0829869	1.10229	1.5708	0	0	-0.264511	-0.192761	-0.224513	1.0534	1.5708	0	0
15.26	-0.157261	1.36949	-1.33328	0.79312	0.234759	0.955635	-0.115181	-0.0262709	-0.0866792	0.337087	-0.327521	0	0	-0.208429	-0.0699044	0.024656	0.134135	-0.389245	0	0	-0.553069	0.172561	-0.21272	-0.0655896	-0.266862	0.0866579	1.10276	1.5708	0	0	-0.262602	-0.194676	-0.221313	1.05762	1.5708	0	0
15.27	-0.159267	1.36927	-1.33119	0.793196	0.234238	0.955612	-0.116371	-0.0254829	-0.0864819	0.335837	-0.327699	0	0	-0.210484	-0.070448	0.0260053	0.131631	-0.389383	0	0	-0.550925	0.171698	-0.214781	-0.0618575	-0.269984	0.0922491	1.10674	1.5708	0	0	-0.265703	-0.19567	-0.223753	1.06783	1.5708	0	0
15.28	-0.160786	1.36927	-1.32979	0.793244	0.23375	0.955569	-0.116784	-0.0245023	-0.0859643	0.33492	-0.327909	0	0	-0.212065	-0.0708566	0.0267551	0.129586	-0.389387	0	0	-0.548542	0.170626	-0.216594	-0.057795	-0.273212	0.0980686	1.11065	1.5708	0	0	-0.268549	-0.196821	-0.226399	1.07856	1.5708	0	0
15.29	-0.161936	1.36898	-1.32864	0.793314	0.233284	0.955579	-0.117786	-0.0239903	-0.0862874	0.334181	-0.327892	0	0	-0.213615	-0.0711329	0.0270145	0.128041	-0.389426	0	0	-0.546358	0.169769	-0.218443	-0.0532878	-0.27667	0.104355	1.11424	1.5708	0	0	-0.271062	-0.198211	-0.229227	1.08931	1.5708	0	0
15.3	-0.162616	1.36876	-1.32794	0.793409	0.232827	0.955589	-0.11915	-0.0239529	-0.0870008	0.333049	-0.327692	0	0	-0.215003	-0.0712296	0.0270289	0.126711	-0.389394	0	0	-0.544526	0.16899	-0.220704	-0.0482895	-0.280315	0.111214	1.11792	1.5708	0	0	-0.273718	-0.199962	-0.232182	1.10059	1.5708	0	0
15.31	-0.162811	1.3687	-1.32769	0.793502	0.232368	0.955585	-0.120409	-0.0241452	-0.0879669	0.331915	-0.32728	0	0	-0.216251	-0.0713708	0.0270504	0.125502	-0.389484	0	0	-0.541951	0.168035	-0.222694	-0.0429151	-0.284108	0.118413	1.12078	1.5708	0	0	-0.27549	-0.201987	-0.234361	1.11113	1.5708	0	0
15.32	-0.162663	1.36897	-1.3278	0.793593	0.231919	0.955556	-0.12114	-0.0244666	-0.0886981	0.331111	-0.326694	0	0	-0.217178	-0.0715855	0.0270015	0.124499	-0.389457	0	0	-0.539993	0.167131	-0.225476	-0.0370871	-0.287795	0.126143	1.12389	1.5708	0	0	-0.278018	-0.203936	-0.237248	1.12216	1.5708	0	0
